PathFileType	4	(X/Y/Z)	c:/Users/goper/Files/vsCode/490R/osim_files/C11/C11_Static01.trc
DataRate	CameraRate	NumFrames	NumMarkers	Units                	OrigDataRate	OrigDataStartFrame	OrigNumFrames
120.00	120.00	10	36	mm	120.0	137	1089
                Frame#	Time	LPSI			LASI			LTH1			LTH2			LTH3			LTH4			LLFE			LMFE			LSH1			LSH2			LSH3			LSH4			LLMA			LMMA			LCAL			LMTP			LTOE			LMTP			RPSI			RASI			RTH1			RTH2			RTH3			RTH4			RLFE			RMFE			RSH1			RSH2			RSH3			RSH4			RLMA			RMMA			RCAL			RMTP			RTOE			RMTP		
		X1	Y1	Z1	X2	Y2	Z2	X3	Y3	Z3	X4	Y4	Z4	X5	Y5	Z5	X6	Y6	Z6	X7	Y7	Z7	X8	Y8	Z8	X9	Y9	Z9	X10	Y10	Z10	X11	Y11	Z11	X12	Y12	Z12	X13	Y13	Z13	X14	Y14	Z14	X15	Y15	Z15	X16	Y16	Z16	X17	Y17	Z17	X18	Y18	Z18	X19	Y19	Z19	X20	Y20	Z20	X21	Y21	Z21	X22	Y22	Z22	X23	Y23	Z23	X24	Y24	Z24	X25	Y25	Z25	X26	Y26	Z26	X27	Y27	Z27	X28	Y28	Z28	X29	Y29	Z29	X30	Y30	Z30	X31	Y31	Z31	X32	Y32	Z32	X33	Y33	Z33	X34	Y34	Z34	X35	Y35	Z35	X36	Y36	Z36

137	1.13333	-373.63022	1018.39868	481.21753	-199.25674	1008.16241	404.92297	-319.90115	644.86469	314.68439	-316.58746	597.37701	311.80588	-259.17697	644.00116	310.23227	-265.07733	597.46704	311.36292	-315.75525	516.63037	306.38351	-295.47009	501.63660	415.14389	-375.72369	414.66089	292.01440	-376.29453	370.00809	287.72989	-314.71826	410.39645	280.31439	-323.54257	366.23920	277.86084	-352.78436	97.10617	311.38110	-314.88983	110.30001	402.72339	-405.09879	59.01258	370.25485	-244.02100	40.22673	268.36600	-165.66255	57.45732	330.05737	-201.88461	45.52440	379.59167	-365.27411	1031.58997	565.33118	-198.01019	1000.92255	634.89227	-299.84698	632.05609	708.83936	-295.39874	588.10370	708.53400	-237.62918	630.38782	700.15894	-243.32680	587.82361	702.62000	-277.34860	520.14246	701.45349	-303.89508	488.06140	592.10834	-347.08679	414.35217	729.42444	-342.42590	368.43738	731.91785	-285.43936	412.40491	723.94507	-289.39615	365.52878	729.31012	-326.98517	98.32607	711.81274	-298.75989	105.36649	617.80310	-387.66888	58.62132	664.51727	-171.52208	49.00291	643.17596	-168.22461	61.81651	692.67761	-209.29240	38.84143	753.82983
138	1.14167	-373.67465	1018.36163	481.27893	-199.35580	1008.16571	404.89398	-319.91049	644.87677	314.66287	-316.66730	597.34253	311.81979	-259.26987	643.97412	310.22238	-265.15698	597.43884	311.35794	-315.80817	516.60406	306.37781	-295.53094	501.60785	415.13190	-375.73666	414.63367	292.02713	-376.33679	369.96295	287.74869	-314.77237	410.33914	280.31885	-323.57571	366.20779	277.86813	-352.79208	97.08124	311.37445	-314.80988	110.30758	402.69797	-405.04147	58.95072	370.26627	-243.87369	40.38474	268.22601	-165.62387	57.45535	330.02878	-201.82922	45.53672	379.54752	-365.28043	1031.59900	565.35968	-197.93297	1000.95190	634.84009	-299.75909	632.04285	708.83051	-295.32932	588.10254	708.51807	-237.48718	630.43854	700.11047	-243.21959	587.84637	702.58307	-277.21606	520.17340	701.43732	-303.89499	488.05060	592.10748	-347.01181	414.36166	729.39630	-342.28394	368.45837	731.90485	-285.28693	412.48911	723.88043	-289.28665	365.58121	729.27002	-326.91946	98.34982	711.80176	-298.78137	105.31555	617.80792	-387.61322	58.57664	664.47174	-171.47458	49.02348	643.14233	-168.14474	61.84293	692.60345	-209.24095	38.84333	753.80365
139	1.15000	-373.74493	1018.31946	481.33124	-199.51015	1008.12341	404.88245	-319.97699	644.83179	314.70193	-316.74878	597.33344	311.85345	-259.33212	643.94348	310.21948	-265.21497	597.40173	311.34756	-315.85196	516.59229	306.39725	-295.52640	501.53662	415.12457	-375.74719	414.61646	292.05127	-376.33334	369.92731	287.76816	-314.93054	410.14505	280.36771	-323.59650	366.15906	277.88269	-352.80682	97.04494	311.40112	-314.83423	110.27969	402.71698	-404.98975	58.89820	370.29767	-243.86955	40.34042	268.22964	-165.62146	57.42342	330.01700	-201.81619	45.52386	379.55685	-365.32388	1031.59241	565.40430	-197.95990	1000.94031	634.81519	-299.70456	632.02728	708.83075	-295.27020	588.09619	708.52191	-237.45166	630.42883	700.07935	-243.17232	587.83386	702.55621	-277.19644	520.14380	701.40918	-303.87665	488.02640	592.11328	-346.97122	414.32083	729.39752	-342.23547	368.41400	731.90002	-285.24658	412.46201	723.85437	-289.27277	365.54401	729.25720	-326.86383	98.28930	711.83740	-298.77808	105.27949	617.81580	-387.63516	58.55130	664.47894	-171.47415	48.98797	643.13525	-168.14836	61.79818	692.61945	-209.23560	38.81892	753.81232
140	1.15833	-373.84109	1018.32489	481.35840	-199.61874	1008.13843	404.86615	-320.07150	644.84106	314.72775	-316.79285	597.33746	311.86542	-259.38150	643.96069	310.21957	-265.25699	597.41223	311.34515	-315.86679	516.59766	306.40979	-295.55167	501.53976	415.09497	-375.76291	414.60321	292.05328	-376.35663	369.92902	287.76852	-314.78659	410.32211	280.32108	-323.59552	366.15305	277.88748	-352.78595	97.04519	311.38882	-314.84555	110.28427	402.72495	-405.03284	58.91424	370.27142	-244.01060	40.16080	268.38416	-165.65128	57.42245	330.02365	-201.83678	45.50843	379.56104	-365.45020	1031.58472	565.43274	-198.06580	1000.92737	634.81036	-299.72778	632.03156	708.82904	-295.25165	588.08160	708.52417	-237.47256	630.42645	700.06561	-243.17926	587.84662	702.53662	-277.20084	520.12701	701.41638	-303.83893	488.03534	592.10529	-346.97772	414.31110	729.39667	-342.26071	368.40240	731.91016	-285.25485	412.44208	723.87280	-289.27032	365.53937	729.26074	-326.91452	98.29994	711.81946	-298.76984	105.28084	617.82123	-387.66690	58.57867	664.49109	-171.50333	48.95739	643.14630	-168.18283	61.78430	692.63568	-209.25945	38.82850	753.81525
141	1.16667	-373.92157	1018.34393	481.35480	-199.75783	1008.17932	404.83954	-320.10318	644.86578	314.73691	-316.81360	597.35535	311.87802	-259.44858	643.97754	310.20834	-265.29059	597.45410	311.33939	-315.88068	516.60516	306.39847	-295.57864	501.61456	415.08911	-376.21994	414.50421	292.30188	-376.34039	369.95670	287.74960	-314.79678	410.35193	280.32367	-323.61041	366.17975	277.88052	-352.78363	97.04715	311.38525	-314.83713	110.28043	402.73013	-405.06958	58.95232	370.22562	-243.86525	40.34572	268.23654	-165.61028	57.44244	330.02267	-201.81259	45.53266	379.55624	-365.46393	1031.55444	565.44666	-198.10150	1000.95667	634.78363	-299.64590	632.04620	708.82355	-295.16556	588.10388	708.51740	-237.40855	630.45239	700.02368	-243.10936	587.87360	702.50812	-277.13605	520.14703	701.39429	-303.80542	488.03763	592.08423	-346.91165	414.31668	729.39673	-342.21307	368.43271	731.90790	-285.24786	412.41562	723.89606	-289.20642	365.56479	729.25909	-326.91449	98.32697	711.82556	-298.77335	105.30373	617.80719	-387.62024	58.57632	664.50464	-171.48415	48.96060	643.15656	-168.14365	61.81204	692.63312	-209.22580	38.84143	753.80975
142	1.17500	-374.07947	1018.34717	481.34906	-199.86009	1008.19806	404.84058	-320.13699	644.86084	314.73041	-316.84680	597.34332	311.87234	-259.50092	643.99023	310.21097	-265.31226	597.47760	311.35492	-315.87775	516.61389	306.39365	-295.59546	501.60754	415.08731	-375.74176	414.60599	292.02304	-376.34445	369.95523	287.76761	-314.94901	410.18973	280.37933	-323.62134	366.16617	277.88962	-352.78418	97.04774	311.38135	-314.89468	110.24022	402.74796	-405.07663	58.94992	370.21405	-244.02673	40.18122	268.36963	-165.67088	57.40419	330.07797	-201.87502	45.49105	379.60583	-365.57928	1031.51343	565.48413	-198.21643	1000.94806	634.79791	-299.65588	632.02301	708.82477	-295.15988	588.08032	708.51154	-237.44540	630.40900	700.05353	-243.13823	587.85791	702.50879	-277.16208	520.12787	701.41431	-303.80399	488.04288	592.06775	-346.94485	414.29813	729.40308	-342.23959	368.39685	731.91760	-285.27036	412.36520	723.92279	-289.26495	365.51547	729.26202	-326.93878	98.28399	711.82318	-298.77100	105.31695	617.81049	-387.62857	58.56565	664.52710	-171.52884	48.91334	643.20508	-168.20718	61.78827	692.69037	-209.27440	38.82247	753.83258
143	1.18333	-374.18652	1018.29022	481.37720	-199.99493	1008.19006	404.83511	-320.18182	644.81866	314.75214	-316.89627	597.30206	311.88644	-259.54233	643.98138	310.21286	-265.34396	597.47235	311.35092	-315.92343	516.58105	306.40588	-295.58212	501.60168	415.09573	-375.77512	414.59418	292.06061	-376.37354	369.91245	287.79941	-314.98969	410.15207	280.38696	-323.63571	366.14444	277.90561	-352.83234	97.03014	311.40610	-314.98083	110.18507	402.77621	-405.10275	58.92344	370.25598	-244.02551	40.15242	268.38422	-165.68950	57.39298	330.08566	-201.91722	45.43122	379.61920	-365.77307	1031.49390	565.52167	-198.34579	1000.92389	634.80066	-299.71838	631.97900	708.83405	-295.20090	588.04504	708.50439	-237.49362	630.35944	700.04156	-243.15279	587.83533	702.50330	-277.21454	520.07776	701.39362	-303.76248	488.14261	591.95587	-346.97144	414.27234	729.43237	-342.25848	368.32202	731.91534	-285.32562	412.29138	723.92371	-289.30365	365.45892	729.27716	-327.00229	98.22817	711.83679	-298.79608	105.26950	617.81427	-387.68112	58.53407	664.57172	-171.55992	48.87166	643.22754	-168.25005	61.72623	692.69818	-209.31688	38.78075	753.84174
144	1.19167	-374.26663	1018.24274	481.40564	-200.07088	1008.20502	404.83191	-320.20786	644.77936	314.77444	-316.94339	597.27258	311.92087	-259.57422	643.96893	310.21960	-265.37631	597.46637	311.34839	-315.94913	516.56177	306.42343	-295.56509	501.60699	415.11841	-375.76682	414.55807	292.08893	-376.39679	369.88092	287.81921	-314.97580	410.12943	280.39136	-323.67307	366.11029	277.91687	-352.86069	97.01582	311.41983	-314.95105	110.19051	402.75690	-405.10574	58.88799	370.28024	-244.07373	40.12363	268.40149	-165.66124	57.40145	330.07861	-201.89821	45.44433	379.59955	-365.85123	1031.49390	565.52130	-198.41122	1000.95282	634.76947	-299.68518	631.98212	708.81360	-295.17365	588.04510	708.49109	-237.43390	630.41058	700.01801	-243.10057	587.84723	702.47113	-277.14432	520.11578	701.38873	-303.76318	488.15530	591.95679	-346.90375	414.29080	729.42944	-342.19333	368.27283	731.90320	-285.25305	412.32709	723.88794	-289.23062	365.48068	729.24969	-326.90665	98.19398	711.82672	-298.81589	105.24857	617.82880	-387.66537	58.49194	664.57794	-171.53938	48.91063	643.19830	-168.22897	61.73257	692.67572	-209.30640	38.78294	753.83319
145	1.20000	-374.30997	1018.20526	481.41028	-200.19685	1008.20844	404.80804	-320.34201	644.71503	314.81247	-316.94714	597.26105	311.91727	-259.62686	643.97931	310.22391	-265.41656	597.47705	311.35498	-315.94757	516.55695	306.41345	-295.60544	501.62378	415.12347	-375.75720	414.53043	292.10007	-376.38220	369.83530	287.84592	-315.02917	410.11227	280.38809	-323.70172	366.10648	277.90848	-352.86557	97.02715	311.41739	-314.99261	110.20490	402.77167	-405.06433	58.84899	370.30292	-244.09535	40.14351	268.39673	-165.71344	57.42084	330.05838	-201.92365	45.49306	379.58365	-365.99835	1031.53503	565.50519	-198.50996	1001.01093	634.74774	-299.70282	632.02399	708.80780	-295.21146	588.08276	708.47662	-237.45282	630.47443	699.99921	-243.11649	587.89093	702.46338	-277.14658	520.15857	701.37744	-303.79175	488.05167	592.06415	-346.94498	414.32346	729.42285	-342.24759	368.33545	731.88934	-285.23813	412.37720	723.86334	-289.22638	365.51959	729.25446	-326.99976	98.24136	711.82690	-298.81808	105.25462	617.82678	-387.68243	58.49844	664.54211	-171.56432	48.96400	643.16510	-168.23946	61.76488	692.66772	-209.32759	38.79848	753.82465
146	1.20833	-374.38535	1018.18469	481.40298	-200.30478	1008.21936	404.78156	-320.27469	644.76276	314.79523	-316.96317	597.27173	311.92789	-259.65817	644.00861	310.20862	-265.42145	597.51807	311.34479	-315.95422	516.57452	306.38892	-295.63428	501.68417	415.10031	-375.79568	414.53473	292.11240	-376.36035	369.85403	287.82635	-315.01743	410.14246	280.37570	-323.70053	366.12021	277.89700	-352.90005	97.03870	311.41953	-315.05243	110.24683	402.76013	-405.05603	58.83131	370.28201	-244.11519	40.15750	268.38480	-165.74268	57.48552	330.04251	-201.90967	45.54490	379.57660	-366.09311	1031.55200	565.45697	-198.56801	1001.10712	634.71790	-299.74451	632.06146	708.78235	-295.22363	588.12531	708.45575	-237.45065	630.54688	699.97534	-243.12434	587.95569	702.45764	-277.15866	520.21985	701.37042	-303.77026	488.06879	592.04315	-346.96960	414.37259	729.36957	-342.24310	368.38699	731.85339	-285.18781	412.46280	723.82629	-289.22253	365.58624	729.23279	-327.05063	98.28708	711.81061	-298.84863	105.28836	617.79126	-387.71069	58.52161	664.50940	-171.56233	49.00277	643.15192	-168.25398	61.81532	692.64032	-209.37582	38.82957	753.82208
